<?xml version="1.0" standalone="no"?>
<!DOCTYPE svg PUBLIC "-//W3C//DTD SVG 20010904//EN"
 "http://www.w3.org/TR/2001/REC-SVG-20010904/DTD/svg10.dtd">
<svg version="1.0" xmlns="http://www.w3.org/2000/svg"
 width="300.000000pt" height="300.000000pt" viewBox="0 0 300.000000 300.000000"
 preserveAspectRatio="xMidYMid meet">
<metadata>
Created by potrace 1.10, written by Peter Selinger 2001-2011
</metadata>
<g transform="translate(0.000000,300.000000) scale(0.100000,-0.100000)"
fill="#000000" stroke="none">
<path d="M1047 2980 c-31 -132 -50 -254 -53 -353 l-4 -118 -60 -72 c-104 -126
-155 -254 -166 -417 -8 -116 -39 -246 -86 -364 -48 -118 -49 -174 -4 -271 32
-71 99 -186 137 -235 l27 -36 -29 -38 c-31 -43 -128 -238 -148 -299 -12 -36
-14 -37 -35 -23 -51 33 -127 46 -273 46 -79 0 -143 -3 -143 -7 0 -5 66 -8 148
-8 152 0 218 -12 255 -46 14 -13 16 -21 8 -41 -5 -14 -16 -28 -23 -31 -9 -4
-8 -6 4 -6 9 -1 23 -4 32 -7 11 -4 16 0 16 13 0 30 43 149 84 233 45 92 109
200 118 200 4 0 23 -19 42 -43 80 -97 333 -286 368 -275 6 2 -13 16 -41 31
-101 52 -290 216 -397 346 l-45 54 24 26 c86 92 102 242 39 366 -24 48 -53 74
-92 85 l-37 10 23 80 c13 43 28 128 34 187 14 135 27 204 52 269 42 116 160
262 266 330 28 18 52 36 52 39 0 9 -40 -14 -94 -53 l-49 -36 6 102 c4 57 19
161 33 233 14 72 23 136 21 142 -3 7 -7 1 -10 -13z m-251 -1337 c37 -40 64
-125 64 -202 0 -57 -5 -78 -32 -132 -18 -35 -40 -65 -48 -67 -28 -5 -117 176
-127 257 -4 37 0 60 23 114 29 68 29 68 63 62 18 -4 44 -18 57 -32z"/>
<path d="M1527 2993 c-2 -4 -19 -51 -36 -103 -52 -155 -69 -183 -118 -195 -23
-5 -45 -14 -50 -19 -4 -5 1 -6 12 -3 81 24 140 30 310 29 105 0 220 -5 256
-11 88 -15 230 -56 299 -87 71 -32 220 -117 220 -125 0 -4 -16 -10 -35 -13
-19 -4 -35 -12 -35 -18 0 -5 6 -8 14 -5 142 55 311 88 484 94 165 6 210 23 61
23 -109 0 -261 -21 -383 -54 l-88 -23 -59 39 c-33 21 -80 48 -106 59 -26 11
-50 24 -53 28 -8 13 -177 68 -270 88 -67 14 -130 18 -297 18 -117 0 -213 1
-213 1 0 1 14 34 30 74 35 85 72 201 66 207 -2 2 -6 1 -9 -4z"/>
<path d="M115 2240 c-3 -5 -15 -10 -26 -10 -10 0 -19 -6 -19 -13 0 -7 -16 -21
-35 -30 -43 -21 -45 -43 -4 -49 26 -4 30 -2 25 15 -3 13 5 29 24 48 54 54 96
25 49 -35 -21 -27 -34 -82 -21 -90 4 -3 14 9 21 25 19 43 40 51 100 35 28 -7
51 -10 51 -6 0 16 -28 29 -77 36 -50 6 -52 7 -46 34 4 22 0 31 -15 39 -14 7
-23 8 -27 1z"/>
<path d="M1042 2149 c-56 -28 -94 -84 -100 -149 -6 -62 2 -91 34 -129 22 -26
33 -31 71 -31 60 0 103 28 136 88 52 95 43 187 -23 225 -37 22 -66 21 -118 -4z
m137 -35 c25 -32 26 -46 6 -84 -13 -24 -22 -30 -50 -30 -36 0 -65 28 -65 61 0
25 48 79 70 79 10 0 28 -12 39 -26z m-141 -37 c-3 -40 22 -85 57 -101 18 -9
38 -16 44 -16 20 0 12 -26 -16 -52 -41 -38 -86 -43 -120 -14 -25 22 -28 30
-27 86 1 53 5 65 29 91 34 35 35 35 33 6z"/>
<path d="M156 2112 c-3 -5 -10 -21 -15 -35 -8 -21 -7 -25 3 -21 8 3 16 17 19
32 6 29 3 39 -7 24z"/>
<path d="M228 2113 c18 -7 15 -23 -10 -44 -25 -20 -10 -26 23 -9 32 18 18 64
-19 59 -4 0 -1 -3 6 -6z"/>
<path d="M2550 2115 c0 -14 61 -94 91 -119 44 -38 49 -24 5 14 -45 40 -46 52
-4 48 31 -3 34 -6 51 -68 26 -96 18 -272 -22 -460 -18 -80 -46 -224 -63 -320
-30 -170 -31 -184 -31 -460 0 -286 5 -346 49 -605 23 -139 39 -164 84 -135 12
8 9 10 -12 10 -22 0 -28 5 -29 23 -1 24 -2 26 -12 77 -4 19 -9 51 -12 70 -2
19 -11 80 -19 135 -8 54 -13 101 -11 103 2 2 -1 15 -6 29 -7 18 -5 34 6 56 14
27 14 34 1 62 -21 44 -26 286 -7 309 12 14 11 16 -4 16 -14 0 -16 5 -10 28 4
15 7 46 6 70 -1 24 5 67 13 95 8 29 22 92 30 141 15 83 26 106 51 105 34 0
139 -29 145 -40 5 -7 6 -21 4 -33 -2 -11 5 -35 16 -53 19 -32 15 -44 -7 -22
-15 15 -45 18 -67 7 -13 -7 -26 -6 -42 2 -29 16 -51 8 -65 -24 -17 -36 18
-102 52 -98 13 2 46 3 73 3 55 0 76 11 76 41 0 32 28 3 42 -43 6 -22 14 -39
18 -39 5 0 11 -11 14 -25 7 -26 26 -35 26 -12 0 8 -18 58 -41 113 -44 109 -99
272 -99 297 0 9 31 30 78 54 42 21 79 39 81 41 2 1 2 5 -2 8 -8 8 -124 -47
-157 -73 -22 -19 -23 -23 -12 -47 7 -15 12 -36 12 -48 0 -16 -5 -19 -22 -15
-13 3 -51 9 -84 13 -88 9 -88 10 -70 85 64 268 74 418 40 588 l-7 34 44 -6
c24 -4 94 -9 154 -11 139 -7 90 7 -85 24 -69 7 -127 15 -130 19 -3 3 -25 12
-50 18 -25 6 -53 15 -62 18 -10 4 -18 4 -18 0z m194 -947 c18 -25 21 -64 6
-73 -6 -3 -19 -3 -30 0 -15 5 -20 15 -20 44 0 56 18 67 44 29z m108 -12 c14
-32 4 -56 -22 -56 -20 0 -40 33 -40 66 0 25 49 17 62 -10z"/>
<path d="M281 2090 c-1 -37 -33 -52 -88 -44 -33 5 -44 4 -39 -5 8 -13 206 -16
206 -3 0 17 -13 22 -27 10 -16 -13 -24 -6 -40 35 -11 30 -12 30 -12 7z"/>
<path d="M2034 2081 c-67 -29 -118 -153 -95 -232 20 -68 111 -118 189 -105 43
6 97 47 119 89 26 49 23 136 -6 178 -37 54 -69 73 -131 76 -30 2 -64 -1 -76
-6z m71 -36 c29 -28 32 -70 9 -103 -23 -33 -97 -32 -120 3 -20 30 -13 62 20
98 31 34 60 34 91 2z m124 -90 c15 -58 -18 -136 -70 -162 -13 -7 -42 -13 -65
-13 -71 0 -150 77 -123 121 6 10 12 10 26 -3 12 -11 33 -15 62 -14 38 2 50 8
77 40 28 32 32 44 28 78 l-4 41 30 -28 c17 -16 34 -43 39 -60z"/>
<path d="M35 2040 c-4 -6 4 -10 19 -10 13 0 32 -7 40 -16 9 -8 16 -11 16 -6 0
23 -64 50 -75 32z"/>
<path d="M14 1987 c-9 -20 -7 -23 10 -24 12 -1 15 1 8 4 -6 3 -10 9 -7 13 3 5
12 7 20 3 8 -3 23 -2 32 1 15 6 15 8 3 16 -26 17 -55 11 -66 -13z"/>
<path d="M1410 1846 c0 -24 26 -39 49 -26 27 14 27 26 -1 34 -36 9 -48 7 -48
-8z"/>
<path d="M2944 1769 c-3 -6 -4 -12 -3 -14 6 -6 59 7 59 14 0 11 -49 11 -56 0z"/>
<path d="M1140 1621 c14 -27 64 -61 87 -60 12 0 8 5 -13 14 -18 8 -41 26 -52
40 -23 30 -37 33 -22 6z"/>
<path d="M2861 1628 c8 -7 18 -21 22 -30 4 -10 22 -19 51 -23 68 -11 79 0 14
14 -32 7 -58 14 -58 17 0 2 25 1 55 -2 69 -8 76 10 8 20 -27 3 -61 9 -78 12
-26 5 -28 3 -14 -8z"/>
<path d="M1333 1597 c-40 -17 -71 -33 -68 -35 3 -3 36 7 74 23 l69 28 74 -45
c41 -25 100 -54 132 -66 55 -20 60 -20 100 -5 50 20 86 42 86 54 0 5 -16 -3
-36 -16 -20 -13 -51 -27 -69 -31 -47 -9 -140 26 -225 86 -56 39 -61 39 -137 7z"/>
<path d="M2235 1562 c-54 -20 -93 -47 -120 -85 -46 -63 -55 -93 -55 -177 0
-70 3 -81 30 -119 17 -23 52 -55 77 -71 58 -37 112 -39 185 -7 106 47 162 134
162 253 1 61 -3 77 -29 119 -38 61 -89 89 -170 92 -33 1 -69 -1 -80 -5z m152
-21 c22 -2 76 -56 94 -96 48 -106 -4 -254 -112 -314 -23 -13 -65 -25 -97 -28
-52 -5 -61 -2 -106 28 -93 65 -121 172 -71 274 28 58 49 84 89 111 45 29 96
41 146 33 25 -5 50 -8 57 -8z"/>
<path d="M184 1434 c-52 -25 -84 -65 -84 -106 0 -27 28 -58 51 -57 8 0 4 5 -8
11 -71 34 36 161 120 144 18 -4 49 -18 69 -31 41 -27 48 -30 48 -16 0 15 -58
52 -104 66 -38 12 -46 11 -92 -11z"/>
<path d="M206 1386 c6 -15 34 -30 42 -22 6 7 -24 36 -37 36 -6 0 -8 -6 -5 -14z"/>
<path d="M320 1363 c0 -40 -33 -56 -110 -51 -73 4 -90 -5 -42 -23 25 -10 114
-6 170 8 28 7 30 43 2 68 -19 18 -20 17 -20 -2z"/>
<path d="M374 1317 c-11 -37 -30 -44 -134 -47 -68 -2 -71 -3 -35 -10 22 -5 78
-5 125 1 47 5 94 9 105 10 20 0 20 0 0 9 -17 7 -14 9 15 10 19 2 41 2 48 1 40
-6 -20 31 -79 47 -34 9 -36 8 -45 -21z"/>
<path d="M424 1196 c23 -18 42 -20 51 -6 3 6 0 10 -7 10 -7 0 -24 3 -38 6 -24
5 -24 5 -6 -10z"/>
<path d="M1020 1000 c44 -34 163 -88 240 -109 86 -24 80 -23 80 -13 0 5 -29
14 -64 21 -35 7 -112 37 -172 66 -60 30 -98 45 -84 35z"/>
<path d="M1940 867 c-42 -20 -59 -22 -230 -21 -130 1 -209 6 -265 17 -94 20
-98 20 -90 7 3 -5 21 -10 38 -10 18 0 47 -4 64 -9 52 -15 200 -26 313 -23
l105 2 -34 -27 c-135 -110 -191 -177 -268 -326 -61 -115 -114 -322 -112 -431
1 -45 3 -40 14 39 36 245 117 444 237 579 48 56 186 165 246 195 23 12 42 24
42 26 0 8 -14 4 -60 -18z"/>
<path d="M2678 860 c-35 -38 -35 -70 -2 -101 54 -51 153 -15 138 50 -11 44
-31 68 -65 75 -43 8 -41 9 -71 -24z m92 -20 c50 -50 3 -99 -65 -68 -32 14 -33
51 -3 72 30 21 44 20 68 -4z"/>
<path d="M2711 824 c-11 -14 -11 -18 4 -32 16 -16 17 -16 10 6 -5 18 -3 23 8
20 9 -2 16 2 17 7 2 16 -24 16 -39 -1z"/>
<path d="M1150 809 c0 -9 65 -119 85 -144 8 -11 2 7 -14 40 -28 56 -70 118
-71 104z"/>
<path d="M2955 718 c-28 -16 -44 -39 -45 -64 0 -28 -19 -44 -54 -44 -16 0 -56
-7 -89 -17 -46 -13 -63 -23 -78 -47 -25 -41 -24 -66 1 -66 13 0 20 -7 20 -18
0 -10 4 -22 9 -28 5 -5 17 -34 26 -64 10 -30 44 -110 76 -178 32 -67 62 -134
65 -147 6 -23 24 -45 24 -30 0 11 -50 134 -87 215 -31 67 -113 298 -113 318 0
11 106 32 163 32 52 0 54 2 63 56 5 39 26 64 51 64 7 0 13 7 13 15 0 18 -17
19 -45 3z"/>
<path d="M117 652 c-15 -16 -16 -24 -6 -45 9 -21 9 -30 -1 -42 -15 -18 2 -45
29 -45 14 1 14 2 -1 11 -26 15 -22 32 5 23 22 -7 22 -6 4 14 -18 20 -18 21 9
24 15 2 32 11 38 21 26 41 -43 76 -77 39z m63 -22 c0 -5 -13 -10 -30 -10 -16
0 -30 5 -30 10 0 6 14 10 30 10 17 0 30 -4 30 -10z"/>
<path d="M2976 661 c-4 -5 -3 -17 1 -27 4 -12 3 -15 -5 -10 -7 4 -12 2 -12 -4
0 -6 -4 -8 -10 -5 -5 3 -10 -1 -10 -9 0 -9 5 -16 10 -16 6 0 10 5 10 10 0 6 9
10 20 10 22 0 28 25 8 33 -10 4 -9 8 2 16 9 7 10 11 3 11 -6 0 -14 -4 -17 -9z"/>
<path d="M528 633 c-22 -6 -22 -12 -2 -34 12 -14 22 -16 40 -9 48 19 51 10 52
-143 1 -78 7 -167 13 -197 6 -30 12 -62 14 -70 1 -8 9 -30 17 -49 13 -29 13
-37 1 -62 -8 -16 -12 -38 -8 -49 11 -34 25 -22 25 22 0 34 3 40 13 30 6 -7 17
-27 24 -45 6 -18 12 -25 12 -16 1 10 -14 57 -33 106 -48 122 -61 203 -61 376
l0 147 -23 0 c-15 0 -26 -7 -29 -20 -4 -13 -14 -20 -30 -20 -13 0 -21 4 -18
10 3 6 13 10 21 10 8 0 14 5 14 10 0 10 -12 11 -42 3z"/>
<path d="M1250 633 c1 -4 7 -35 15 -68 29 -118 16 -328 -30 -499 -13 -50 -14
-80 -2 -65 14 16 50 205 59 304 11 133 -6 325 -30 333 -6 2 -12 0 -12 -5z"/>
<path d="M2464 524 c-21 -59 -72 -168 -107 -228 -40 -70 -88 -123 -206 -229
-35 -32 -60 -61 -57 -65 4 -3 45 32 92 79 86 84 96 78 23 -15 -21 -26 -36 -52
-33 -58 8 -12 52 46 131 171 36 58 73 117 83 131 9 14 20 39 24 55 4 17 21 61
38 98 16 38 27 71 24 74 -3 3 -9 -3 -12 -13z"/>
<path d="M2831 506 c8 -8 169 -12 169 -4 0 4 -39 8 -87 8 -47 0 -84 -2 -82 -4z"/>
<path d="M347 476 c-27 -18 -32 -28 -35 -68 -4 -64 21 -88 96 -88 30 0 72 5
93 12 31 9 39 16 39 35 0 58 -49 106 -128 124 -25 5 -39 2 -65 -15z m106 -22
c76 -39 88 -76 32 -100 -40 -16 -108 -18 -136 -4 -23 13 -24 38 -5 85 13 29
20 35 46 35 17 0 45 -7 63 -16z"/>
<path d="M460 415 c0 -20 -32 -35 -75 -35 -22 0 -34 -4 -30 -10 7 -11 66 -13
114 -4 33 7 41 30 19 52 -16 16 -28 15 -28 -3z"/>
<path d="M0 417 c0 -7 5 -18 12 -25 9 -9 8 -21 -2 -52 -16 -47 -12 -54 15 -33
14 11 16 17 7 20 -6 3 -9 10 -5 15 15 25 11 69 -8 79 -14 7 -19 6 -19 -4z"/>
<path d="M63 309 c9 -5 17 -15 17 -20 0 -21 -41 -68 -63 -71 -19 -3 -17 -6 17
-21 56 -25 96 -22 129 9 20 18 27 34 25 52 -4 32 -41 54 -72 42 -14 -5 -25 -3
-34 6 -7 8 -18 14 -25 14 -7 0 -4 -5 6 -11z m108 -35 c11 -14 9 -20 -19 -45
-32 -29 -55 -35 -86 -23 -25 10 -19 22 26 54 47 34 60 37 79 14z"/>
<path d="M2387 282 c-4 -18 -27 -85 -52 -149 -25 -64 -44 -121 -42 -127 2 -6
22 36 44 94 54 138 65 176 61 197 -2 11 -6 6 -11 -15z"/>
<path d="M2863 269 c4 -13 7 -39 7 -58 0 -29 2 -32 15 -21 12 10 18 8 35 -11
15 -18 13 -8 -10 41 -30 65 -59 96 -47 49z"/>
<path d="M2948 216 c3 -28 8 -34 28 -32 23 1 35 16 14 16 -6 0 -16 11 -22 25
-16 35 -25 31 -20 -9z"/>
</g>
</svg>
